# xmcd CD database file
#
# Track frame offsets:
#	150
#	17636
#	35140
#	49055
#	64055
#	79690
#	98677
#	117192
#	134592
#	150650
#	167031
#
# Disc length: 2540 seconds
#
# Revision: 0
# Processed by: cddbd v1.5.2PL0 Copyright (c) Steve Scherf et al.
# Submitted via: CDex 1.51
#
DISCID=8b09ea0b
DTITLE=Jos Slijpen workshop mrt/april - Jos Slijpen workshop mrt/april
DYEAR=2007
DGENRE=Country
TTITLE0=Sky Loves Blue
TTITLE1=Oldtime Manners
TTITLE2=Broken Hearted Rock N roll
TTITLE3=Alone Together
TTITLE4=Coalmine
TTITLE5=Heart A an Angel (pop)
TTITLE6=Heart A an Angel (country)
TTITLE7=Come Anytime (pop)
TTITLE8=Come Anytime (country)
TTITLE9=Sweet Love
TTITLE10=Last Waltz (p)
EXTD=YEAR: 2007
EXTT0=
EXTT1=
EXTT2=
EXTT3=
EXTT4=
EXTT5=
EXTT6=
EXTT7=
EXTT8=
EXTT9=
EXTT10=
PLAYORDER=
